<?xml version="1.0" encoding="utf-8"?>
<!-- Generator: Adobe Illustrator 22.0.1, SVG Export Plug-In . SVG Version: 6.00 Build 0)  -->
<svg version="1.1" id="Calque_1" xmlns="http://www.w3.org/2000/svg" xmlns:xlink="http://www.w3.org/1999/xlink" x="0px" y="0px"
	 viewBox="0 0 48 48" style="enable-background:new 0 0 48 48;" xml:space="preserve">
<style type="text/css">
	.st0{fill:#FFCC99;}
</style>
<path class="st0" d="M35,2.1C34.8,2,34.7,2,34.5,2H7.2C4.3,2,2,4.3,2,7.2v19.9c0,1.2,0.9,2.1,2.1,2.1c1.2,0,2.1-0.9,2.1-2.1V9.3
	c0-1.7,1.4-3.1,3.1-3.1h25.1c0.2,0,0.4,0,0.5-0.1c0.2,0,0.3,0.1,0.5,0.1h3.1c1.7,0,3.1,1.4,3.1,3.1v3.1c0,1.2,0.9,2.1,2.1,2.1
	c1.2,0,2.1-0.9,2.1-2.1V7.2C46,4.3,43.7,2,40.8,2h-5.2C35.3,2,35.2,2,35,2.1z M12.5,41.8c1.2,0,2.1,0.9,2.1,2.1
	c0,1.2-0.9,2.1-2.1,2.1H7.2C4.3,46,2,43.7,2,40.8v-5.2c0-1.2,0.9-2.1,2.1-2.1c1.2,0,2.1,0.9,2.1,2.1v3.1c0,1.7,1.4,3.1,3.1,3.1
	L12.5,41.8z M41.8,21.9c0-1.2,0.9-2.1,2.1-2.1c1.2,0,2.1,0.9,2.1,2.1v18.9c0,2.9-2.3,5.2-5.2,5.2H21.9c-1.2,0-2.1-0.9-2.1-2.1
	c0-1.2,0.9-2.1,2.1-2.1h16.8c1.7,0,3.1-1.4,3.1-3.1L41.8,21.9z M26.4,22.8c1.3,0,2.4,1.1,2.4,2.4s-1.1,2.4-2.4,2.4S24,26.6,24,25.2
	S25.1,22.8,26.4,22.8z M16.8,20.4V24v2.4V30h2.4v-3.6h2.6c0.5,2.1,2.5,3.6,4.7,3.6c2.7,0,4.8-2.2,4.8-4.8s-2.2-4.8-4.8-4.8
	c-2.2,0-4.1,1.5-4.7,3.6h-2.6v-3.6H16.8z"/>
</svg>
